<svg viewBox="0 0 29 30" fill="none" xmlns="http://www.w3.org/2000/svg" class="icon icon-cart">
<path d="M8.87978 29.5356C8.14083 29.5356 7.51252 29.2767 6.99485 28.7591C6.47719 28.2414 6.21835 27.6131 6.21835 26.8741C6.21835 26.1352 6.47719 25.5069 6.99485 24.9892C7.51252 24.4715 8.14083 24.2127 8.87978 24.2127C9.61875 24.2127 10.2471 24.4715 10.7647 24.9892C11.2824 25.5069 11.5412 26.1352 11.5412 26.8741C11.5412 27.6131 11.2824 28.2414 10.7647 28.7591C10.2471 29.2767 9.61875 29.5356 8.87978 29.5356ZM23.6201 29.5356C22.8812 29.5356 22.2529 29.2767 21.7352 28.7591C21.2175 28.2414 20.9587 27.6131 20.9587 26.8741C20.9587 26.1352 21.2175 25.5069 21.7352 24.9892C22.2529 24.4715 22.8812 24.2127 23.6201 24.2127C24.3591 24.2127 24.9874 24.4715 25.5051 24.9892C26.0227 25.5069 26.2816 26.1352 26.2816 26.8741C26.2816 27.6131 26.0227 28.2414 25.5051 28.7591C24.9874 29.2767 24.3591 29.5356 23.6201 29.5356ZM7.14834 5.49475L11.0031 13.5669H21.3711C21.4588 13.5669 21.5368 13.5449 21.605 13.5011C21.6733 13.4572 21.7318 13.3963 21.7805 13.3183L25.8604 5.9042C25.919 5.79696 25.9238 5.7019 25.8751 5.61904C25.8263 5.53616 25.7435 5.49472 25.6265 5.49472L7.14834 5.49475ZM6.05452 3.21358H27.1706C27.7926 3.21358 28.263 3.47826 28.5818 4.00761C28.9006 4.53698 28.9157 5.07756 28.6271 5.62935L23.7547 14.4559C23.5051 14.8946 23.1751 15.2363 22.7646 15.481C22.3542 15.7257 21.9043 15.8481 21.4149 15.8481H10.3187L8.55804 19.0652C8.48005 19.1822 8.47762 19.309 8.55074 19.4455C8.62387 19.582 8.73355 19.6502 8.87978 19.6502H26.2816V21.9314H8.87978C7.86591 21.9314 7.10404 21.4942 6.59415 20.6197C6.08429 19.7452 6.06626 18.8722 6.54005 18.0007L8.7102 14.0991L3.17669 2.45305H0.28125V0.171875H4.60973L6.05452 3.21358Z" fill="#0B0F0E"/>
</svg>
