<svg viewBox="0 0 20 20" fill="none" xmlns="http://www.w3.org/2000/svg" class="icon icon-search">
<path d="M12.055 12.0496C11.5234 12.5817 10.8923 13.0038 10.1977 13.2918C9.50318 13.5797 8.75876 13.7279 8.00698 13.7279C7.2552 13.7279 6.51078 13.5797 5.81622 13.2918C5.12165 13.0038 4.49054 12.5817 3.95892 12.0496C3.4273 11.5175 3.00558 10.8858 2.71786 10.1905C2.43013 9.49528 2.28204 8.75009 2.28204 7.99753C2.28204 7.24497 2.43013 6.49979 2.71786 5.80453C3.00558 5.10927 3.4273 4.47755 3.95892 3.94544C5.03257 2.87081 6.48871 2.26713 8.00698 2.26713C9.52526 2.26713 10.9814 2.87081 12.055 3.94544C13.1287 5.02008 13.7319 6.47766 13.7319 7.99753C13.7319 9.51741 13.1287 10.975 12.055 12.0496ZM7.49865 15.2525C9.2951 15.378 11.071 14.8301 12.4831 13.7204L17.9055 19.1377C17.9722 19.2144 18.0536 19.2771 18.1449 19.322C18.2397 19.3687 18.3431 19.3953 18.4486 19.4001C18.5541 19.405 18.6595 19.3879 18.7582 19.35C18.8568 19.3121 18.9465 19.2543 19.0217 19.18C19.0969 19.1058 19.156 19.0169 19.1952 18.9188C19.2344 18.8207 19.2529 18.7155 19.2496 18.6099C19.2463 18.5043 19.2212 18.4006 19.176 18.3051C19.132 18.2125 19.0701 18.1297 18.9937 18.0616L13.5846 12.6476C14.73 11.2668 15.3257 9.50745 15.2511 7.70881C15.1732 5.83158 14.3712 4.05764 13.0137 2.75991C11.6561 1.46217 9.84871 0.741715 7.9714 0.750072C6.09409 0.758428 4.29318 1.49494 2.94721 2.80472C1.60125 4.11448 0.815071 5.89549 0.753861 7.77333C0.692651 9.65118 1.36117 11.4797 2.61897 12.8745C3.87676 14.2693 5.62588 15.1217 7.49865 15.2525Z" fill="#1B2124" stroke="#1B2124" stroke-width="0.7"/>
</svg>

