<svg viewBox="0 0 22 24" fill="none" xmlns="http://www.w3.org/2000/svg" class="icon icon-account">
<path d="M0.7 22.5385V22.8385H1H21H21.3V22.5385V21.9402C21.3 18.2248 20.3836 15.7739 18.4368 14.3397L18.4367 14.3396C16.5629 12.9604 13.9432 12.6658 11 12.6658C8.05849 12.6658 5.43735 12.9479 3.56272 14.34C1.61629 15.7744 0.7 18.2252 0.7 21.9402V22.5385ZM7.77059 5.78632C7.77059 4.91221 8.11204 4.07489 8.71825 3.45832C9.32429 2.84192 10.1452 2.49658 11 2.49658C11.8548 2.49658 12.6757 2.84192 13.2817 3.45832C13.888 4.07489 14.2294 4.91221 14.2294 5.78632C14.2294 6.66044 13.888 7.49776 13.2817 8.11433C12.6757 8.73073 11.8548 9.07607 11 9.07607C10.1452 9.07607 9.32429 8.73073 8.71825 8.11433C8.11204 7.49776 7.77059 6.66044 7.77059 5.78632ZM11 0.7C9.6707 0.7 8.39689 1.23714 7.45852 2.19156C6.52031 3.1458 5.99412 4.43897 5.99412 5.78632C5.99412 7.13368 6.52031 8.42685 7.45852 9.38109C8.39689 10.3355 9.6707 10.8727 11 10.8727C12.3293 10.8727 13.6031 10.3355 14.5415 9.38109C15.4797 8.42685 16.0059 7.13368 16.0059 5.78632C16.0059 4.43897 15.4797 3.1458 14.5415 2.19156C13.6031 1.23714 12.3293 0.7 11 0.7ZM17.3862 15.7796C18.5594 16.6536 19.363 18.1684 19.4999 21.0419H2.50013C2.63716 18.1795 3.44022 16.6533 4.60227 15.7794C5.98685 14.7663 8.06013 14.4624 11 14.4624C13.9401 14.4624 16.0252 14.7784 17.3862 15.7796Z" fill="#1B2124" stroke="#1B2124" stroke-width="0.6"/>
</svg>

